<svg height="185.16434mm" viewBox="0 0 185.16432 185.16434" width="185.16432mm" xmlns="http://www.w3.org/2000/svg"><g transform="translate(-19.050355 -54.347914)"><g fill="#f00" transform="translate(-3.175 -78.845833)"><rect height="147.41072" rx="3.401787" transform="rotate(-90)" width="6.803574" x="-154.81364" y="37.041664"/><path d="m179.49525 164.62995v-26.4362l22.89442 13.2181z"/></g><g fill="#000080" transform="matrix(0 1 -1 0 188.680308 32.122572)"><rect height="147.41072" rx="3.401787" transform="rotate(-90)" width="6.803574" x="-154.81364" y="37.041664"/><path d="m179.49525 164.62995v-26.4362l22.89442 13.2181z"/></g><path d="m175.22109 108.83897c0-.7112-.6604-.7112-1.4224-.7112-1.016 0-1.2192 0-1.4732.7112-1.3208 4.2672-4.3688 6.096-6.5532 6.096-2.5908 0-2.5908-1.9812-2.5908-2.4892 0-.3048 0-.8128.1524-1.4224l2.7432-11.277601c.4572-1.9304 1.8796-4.5212 3.9116-4.5212.254 0 1.27 0 2.0828.8128-2.5908.9652-2.5908 3.2512-2.5908 3.4544 0 1.270001.9652 2.336801 2.54 2.336801 1.8796 0 3.6576-1.5748 3.6576-3.962401 0-2.6924-2.54-4.4704-5.5372-4.4704-1.1684 0-3.1496.3048-5.1816 2.6924-1.1684-1.6256-3.4036-2.6924-6.4008-2.6924-6.2992 0-9.652 6.2992-9.652 7.924801 0 .7112.6604.7112 1.4224.7112 1.016 0 1.2192 0 1.4732-.7112 1.3208-4.368801 4.4704-6.096001 6.5024-6.096001 2.5908 0 2.5908 1.9304 2.5908 2.4892 0 1.0668-.6604 3.708401-1.1176 5.537201l-1.6256 6.604c-.7112 2.794-1.9812 5.08-4.064 5.08-.1524 0-1.27 0-2.032-.8128 2.5908-.9652 2.5908-3.2512 2.5908-3.4544 0-1.27-.9652-2.3368-2.54-2.3368-1.9304 0-3.6576 1.6256-3.6576 3.9624 0 2.6416 2.4384 4.4704 5.5372 4.4704 2.5908 0 4.3688-1.7272 5.1816-2.6924 1.1684 1.7272 3.556 2.6924 6.35 2.6924 6.35 0 9.7028-6.2992 9.7028-7.9248z" fill="#f00"/><path d="m78.043762 209.49505 4.8768-19.6088c.2032-.762.2032-.8636.2032-1.1176 0-1.5748-1.2192-2.1844-2.286-2.1844-.3048 0-2.54.0508-3.2004 2.7432l-3.6576 14.5288c-.1524.6096-.3556 1.3716-1.8796 2.6416-.4064.3556-1.6256 1.2192-3.2004 1.2192-2.54 0-2.6416-2.3876-2.6416-3.5052 0-3.048 1.7272-7.5692 2.9464-10.7696.4572-1.27.7112-1.8796.7112-2.7432 0-2.8448-2.5908-4.5212-5.334-4.5212-5.2832 0-7.7724 6.858-7.7724 7.9248 0 .7112.6604.7112 1.4224.7112.9652 0 1.2192 0 1.4224-.6604.4064-1.3208 1.778-6.1468 4.6736-6.1468.254 0 .7112 0 .7112.9144 0 1.0668-.6096 2.6416-.9144 3.3528-1.6256 4.3688-3.048 8.0264-3.048 10.8712 0 4.6228 3.302 6.4008 7.5184 6.4008 2.032 0 3.5052-.7112 4.2672-1.2192-.9652 4.572-4.1148 9.2456-8.0264 9.2456-.4572 0-1.6256-.0508-2.6416-.762.762-.3556 2.286-1.4224 2.286-3.3528s-1.5748-2.3368-2.4892-2.3368c-2.032 0-3.6576 1.6764-3.6576 3.8608 0 2.6924 2.6924 4.4196 6.4516 4.4196 6.4008 0 12.0396-4.9784 13.2588-9.906z" fill="#000080"/></g></svg>